<svg xmlns="http://www.w3.org/2000/svg" width="1998.92" height="561.67"><path fill="#000" fill-rule="nonzero" d="M841.65.29c-96.69 0-175.34 78.66-175.34 175.34v210.7c0 96.69 78.66 175.34 175.34 175.34h455.9V421.39h-455.9c-19.34 0-35.07-15.73-35.07-35.07s15.73-35.07 35.07-35.07v-.29h315.62V210.7H841.65c-19.34 0-35.07-15.73-35.07-35.07s15.73-35.07 35.07-35.07v-.29h455.9V0h-455.9v.29Zm-666.31 0C78.66.29 0 78.95 0 175.63v385.76h140.28V386.05c0-19.34 15.73-35.07 35.07-35.07h315.61V210.7H175.34c-19.34 0-35.07-15.73-35.07-35.07s15.73-35.07 35.07-35.07v-.29h455.9V0h-455.9v.29ZM1823.58 210.7h-315.62c-19.34 0-35.07-15.73-35.07-35.07s15.73-35.07 35.07-35.07v-.29h455.9V0h-455.9v.29c-96.69 0-175.34 78.66-175.34 175.34s78.66 175.34 175.34 175.34h315.62c19.34 0 35.07 15.73 35.07 35.07s-15.73 35.07-35.07 35.07v-.29h-455.9V561.1h455.9v.29c96.69 0 175.34-78.66 175.34-175.34s-78.66-175.34-175.34-175.34v-.01Z"/></svg>