<svg xmlns="http://www.w3.org/2000/svg" width="712" height="200"><g fill="#000" fill-rule="nonzero"><path d="M299.81.11c-34.428 0-62.437 28.009-62.437 62.437V137.563c0 34.428 28.009 62.437 62.437 62.437h162.322v-49.948H299.81c-6.89 0-12.49-5.6-12.49-12.489 0-6.89 5.6-12.49 12.49-12.49v-.1h112.374V75.027H299.81c-6.89 0-12.49-5.6-12.49-12.49 0-6.889 5.6-12.489 12.49-12.489v-.1h162.322V0H299.81v.11ZM62.572.11C28.144.11.135 28.119.135 62.547V199.9h49.948v-62.437c0-6.89 5.6-12.49 12.489-12.49h112.374V75.027H62.572c-6.89 0-12.49-5.6-12.49-12.49 0-6.889 5.6-12.489 12.49-12.489v-.1h162.322V0H62.572v.11ZM649.433 75.036H537.058c-6.89 0-12.49-5.6-12.49-12.49 0-6.889 5.6-12.489 12.49-12.489v-.1H699.38V.01H537.058v.1c-34.428 0-62.437 28.009-62.437 62.437s28.009 62.437 62.437 62.437h112.375c6.89 0 12.489 5.6 12.489 12.49 0 6.889-5.6 12.489-12.49 12.489v-.1H487.112v49.947h162.322v.1c34.428 0 62.436-28.009 62.436-62.437s-28.008-62.437-62.436-62.437Z"/></g></svg>