<svg xmlns="http://www.w3.org/2000/svg" width="2000" height="868" fill="none"><g fill="#000" clip-path="url(#a)"><path d="M27.37 750.1h60.01v20.77H27.37v55.44H1.07V694.86h92.97v20.57H27.37v34.67ZM129.86 793.15c0 4 0 6.67.19 9.33.57 5.15 2.86 6.86 11.81 6.29v18.1c-5.14.57-10.28.76-16.19.76-12.95 0-21.14-4.76-21.72-17.91-.38-4.57-.38-9.33-.38-16V686.28h26.29v106.87ZM251.03 775.62c0 30.67-18.86 53.34-52.58 53.34s-52.58-22.67-52.58-53.34 18.86-53.34 52.58-53.34 52.58 22.48 52.58 53.34Zm-27.24 0c0-21.91-9.53-34.86-25.34-34.86s-25.33 12.95-25.33 34.86 9.53 34.86 25.33 34.86c15.8 0 25.34-13.14 25.34-34.86ZM322.48 723.24v21.15c-21.91-1.52-32.77 8.19-32.77 35.43v46.48h-26.29V724.95h26.29v18.48l8-14.1c4.95-4.57 11.62-6.86 17.33-6.86 3.05 0 5.14.19 7.43.76l.01.01ZM358.68 701.14c0 8.38-5.91 13.91-14.48 13.91s-14.48-5.52-14.48-13.91 5.91-13.91 14.48-13.91 14.48 5.72 14.48 13.91ZM331.06 826.3V724.95h26.29V826.3h-26.29ZM475.46 826.3h-26.29v-15.62l-7.62 11.24c-5.71 4.38-16 7.05-26.29 7.05-28.38 0-45.15-21.53-45.15-51.43 0-36.77 22.48-55.24 48.58-55.24 8.38 0 18.67 2.09 23.82 5.71l6.67 10.48v-52.2h26.29v140.02l-.01-.01Zm-26.29-49.53v-4.95c0-22.86-13.14-31.05-25.33-31.05-15.24 0-26.48 11.62-26.48 35.05 0 20.76 9.91 34.67 25.53 34.67 14.48 0 26.29-8.95 26.29-33.72h-.01ZM552.05 811.44l-4.95 10.86c-7.05 4.76-15.62 6.67-25.15 6.67-17.53 0-32.58-10.29-32.58-29.53 0-22.29 19.05-34.86 55.82-34.86h6.48v-2.1c0-3.05 0-6.1-.38-9.53-.76-7.05-5.33-12.19-15.62-12.19s-16.19 6.1-16.95 17.15l-25.53.19c.76-22.86 19.24-35.81 43.43-35.81 28.39 0 39.06 12.38 40.58 29.91.38 4.76.57 10.1.57 15.62v32.77c0 7.62.38 14.48 1.91 25.72h-25.72l-1.91-14.86v-.01Zm-.38-22.48v-8.19c-20.95-1.52-35.05 3.24-35.05 16.57 0 8.95 6.1 13.14 15.43 13.14 10.67 0 19.62-7.43 19.62-21.53v.01ZM729.42 826.3h-94.87V694.85h92.97v20.57h-66.68v34.67h61.91v20.77h-61.91v34.67h68.58V826.3ZM837.45 769.15v57.15h-26.29v-53.53c0-4.19 0-8.95-.38-14.1-.76-10.67-6.67-17.91-19.43-17.91s-22.86 11.05-22.86 39.24v46.29H742.2V724.94h26.29v16.38l7.81-12c7.24-5.14 14.67-7.05 24.38-7.05 21.53 0 33.91 10.67 36 28.38.57 5.14.76 10.28.76 18.48l.01.02ZM947.38 782.48h-72c1.71 21.33 11.24 28 23.43 28 11.24 0 19.43-6.28 21.15-17.14h26.29c-5.14 23.62-24.19 35.62-48 35.62-27.82 0-49.34-17.33-49.34-52.96 0-31.05 20.38-53.72 51.43-53.72s47.43 23.62 47.43 51.24c0 2.48 0 5.52-.38 8.95l-.01.01Zm-71.24-17.15h44.58c-1.72-16-8.95-24.58-21.53-24.58-12.58 0-20.77 7.81-23.05 24.58ZM1020.16 723.24v21.15c-21.91-1.52-32.77 8.19-32.77 35.43v46.48H961.1V724.95h26.29v18.48l8-14.1c4.95-4.57 11.62-6.86 17.33-6.86 3.05 0 5.14.19 7.43.76l.01.01ZM1126.27 800.96c0 6.29 0 14.1-.19 19.62-1.15 31.62-21.72 46.86-53.72 46.86-29.72 0-46.29-12.38-48.58-34.67l-.19-1.9h25.53l.19 1.72c1.14 9.33 9.91 15.24 23.43 15.24 16.19 0 26.1-8.19 27.05-24.38.19-3.81.19-8 .19-12.38v-2.48l-7.62 11.24c-5.71 4.38-14.86 7.05-25.14 7.05-28.58 0-46.29-20.38-46.29-50.1 0-36.77 22.48-54.48 48.58-54.48 8.38 0 18.67 2.09 23.82 5.71l6.67 10.48v-13.53h26.29v76.01l-.02-.01Zm-26.29-26.29v-2.86c0-22.86-13.14-31.05-25.33-31.05-15.24 0-26.48 10.48-26.48 33.72 0 20.77 9.91 33.91 25.53 33.91 14.48 0 26.29-8.95 26.29-33.72h-.01ZM1201.16 830.11c-10.67 27.43-21.72 36.2-42.29 36.2-4.77 0-8.01-.19-11.81-.76v-18.1c2.67.38 5.14.38 7.81.38 8.95 0 14.86-3.43 19.05-13.53l1.33-3.24-41.34-106.11h29.34l25.15 81.34 24.77-81.34h28.76l-40.77 105.15v.01ZM1378.14 733.52h-26.86c-1.52-13.33-8.95-21.72-22.67-21.72-10.48 0-18.48 4.95-18.48 15.62 0 10.67 7.04 16.57 28 21.53 28.96 6.67 41.91 20 41.91 41.15 0 24.77-22.67 38.86-48.58 38.86-31.43 0-52.01-13.91-54.48-41.53h26.86c2.86 14.48 13.91 21.91 27.24 21.91 12 0 21.53-6.48 21.53-16.57 0-11.05-6.86-17.53-26.29-22.1-26.86-6.48-43.82-15.81-43.82-40.01 0-24.2 21.91-38.48 47.05-38.48 31.43 0 45.72 17.91 48.58 41.34h.01ZM1483.69 782.48h-72c1.71 21.33 11.24 28 23.43 28 11.24 0 19.43-6.28 21.15-17.14h26.29c-5.14 23.62-24.19 35.62-48 35.62-27.82 0-49.34-17.33-49.34-52.96 0-31.05 20.38-53.72 51.43-53.72s47.43 23.62 47.43 51.24c0 2.48 0 5.52-.38 8.95l-.01.01Zm-71.24-17.15h44.58c-1.72-16-8.95-24.58-21.53-24.58-12.58 0-20.77 7.81-23.05 24.58ZM1544.03 723.07c-4.33.93-8.77 2.98-12.32 6.26l-8 14.1v-18.48h-26.29V826.3h26.29v-46.48c0-25.43 9.47-35.58 28.56-35.58l-8.24-21.17ZM1621.82 826.3h-29.34l-39.43-101.35h29.14l25.53 81.53 24.95-81.53h28.38l-39.24 101.35h.01ZM1695.75 701.14c0 8.38-5.91 13.91-14.48 13.91s-14.48-5.52-14.48-13.91 5.91-13.91 14.48-13.91 14.48 5.72 14.48 13.91Zm-27.62 125.16V724.95h26.29V826.3h-26.29ZM1804.15 761.53h-25.91c-2.48-14.67-10.1-20.77-20.96-20.77-13.33 0-22.86 10.86-22.86 33.91 0 25.15 9.53 35.81 22.67 35.81 10.29 0 17.91-6.48 20.57-19.24h26.29c-4.38 24.96-23.05 37.72-48.39 37.72-27.62 0-48.39-17.53-48.39-52.58s22.86-54.1 50.68-54.1 44.39 16.76 46.29 39.24l.01.01ZM1907.79 782.48h-72.01c1.71 21.33 11.24 28 23.43 28 11.24 0 19.43-6.28 21.15-17.14h26.29c-5.14 23.62-24.19 35.62-48 35.62-27.82 0-49.34-17.33-49.34-52.96 0-31.05 20.38-53.72 51.43-53.72s47.43 23.62 47.43 51.24c0 2.48 0 5.52-.38 8.95v.01Zm-71.25-17.15h44.58c-1.72-16-8.95-24.58-21.53-24.58-12.58 0-20.77 7.81-23.05 24.58ZM1997.91 754.29h-26.29c-1.72-9.33-6.86-14.67-15.62-14.67-7.81 0-12 4.57-12 10.86 0 7.62 6.28 11.62 23.05 15.81 20.76 5.33 32.95 13.71 32.95 32.38 0 20.38-18.48 30.29-41.72 30.29-24.58 0-41.91-10.67-44.77-33.53h26.29c2.09 11.05 9.71 16.19 18.86 16.19 8.38 0 14.86-3.62 14.86-11.05 0-7.81-6.67-12.19-24.19-16.57-18.86-4.76-31.82-12.95-31.82-30.48 0-19.43 16-31.24 40.19-31.24 24.19 0 37.91 13.53 40.2 32l.01.01ZM841.65.29c-96.69 0-175.34 78.66-175.34 175.34v210.7c0 96.69 78.66 175.34 175.34 175.34h455.9V421.39h-455.9c-19.34 0-35.07-15.73-35.07-35.07s15.73-35.07 35.07-35.07v-.29h315.62V210.7H841.65c-19.34 0-35.07-15.73-35.07-35.07s15.73-35.07 35.07-35.07v-.29h455.9V0h-455.9v.29ZM175.34.29C78.66.29 0 78.95 0 175.63v385.76h140.28V386.05c0-19.34 15.73-35.07 35.07-35.07h315.61V210.7H175.34c-19.34 0-35.07-15.73-35.07-35.07s15.73-35.07 35.07-35.07v-.29h455.9V0h-455.9v.29ZM1823.58 210.7h-315.62c-19.34 0-35.07-15.73-35.07-35.07s15.73-35.07 35.07-35.07v-.29h455.9V0h-455.9v.29c-96.69 0-175.34 78.66-175.34 175.34s78.66 175.34 175.34 175.34h315.62c19.34 0 35.07 15.73 35.07 35.07s-15.73 35.07-35.07 35.07v-.29h-455.9V561.1h455.9v.29c96.69 0 175.34-78.66 175.34-175.34s-78.66-175.34-175.34-175.34v-.01Z"/></g><defs><clipPath id="a"><path fill="#fff" d="M0 0h2000v867.44H0z"/></clipPath></defs></svg>